M48
;DRILL file {KiCad 5.0.0-rc2-dev-unknown-41ac458~64~ubuntu17.10.1} date Thu Apr 19 23:44:28 2018
;FORMAT={-:-/ absolute / metric / decimal}
FMAT,2
METRIC,TZ
T1C0.300
T2C0.400
T3C0.500
T4C0.750
T5C0.800
T6C0.850
T7C1.000
T8C1.020
T9C2.600
T10C1.780
T11C2.750
%
G90
G05
M71
T1
X131.729Y-99.564
X132.1Y-101.3
X132.4Y-95.6
X132.4Y-100.1
X132.4Y-98.4
X136.1Y-90.3
X136.1Y-90.9
X136.1Y-91.5
X136.1Y-92.1
X136.1Y-92.7
X136.8Y-108.9
X136.8Y-107.7
X137.1Y-111.4
X137.8Y-107.
X140.2Y-95.4
X142.6Y-105.
X143.172Y-104.441
X143.4Y-110.2
X143.4Y-111.4
X143.73Y-103.867
X144.Y-97.1
X146.Y-99.5
X146.Y-131.1
X146.134Y-112.356
X146.39Y-106.1
X146.4Y-107.75
X146.4Y-108.95
X146.923Y-112.72
X148.9Y-103.9
X149.3Y-103.2
X149.7Y-111.8
X150.4Y-108.
X150.4Y-131.
X151.Y-107.4
X151.Y-108.
X151.Y-108.6
X151.1Y-111.9
X151.6Y-108.
X151.934Y-122.934
X152.2Y-118.3
X152.5Y-123.5
X152.6Y-124.9
X153.4Y-103.1
X153.6Y-124.4
X153.6Y-128.3
X154.Y-111.3
X154.5Y-108.5
X154.5Y-118.3
X154.8Y-111.2
X155.3Y-127.4
X155.4Y-110.5
X155.6Y-96.8
X155.8Y-108.3
X155.9Y-132.5
X156.Y-106.2
X156.9Y-104.
X156.9Y-108.3
X157.Y-110.
X157.Y-121.
X157.Y-124.
X157.2Y-133.2
X157.6Y-111.4
X157.6Y-116.5
X157.641Y-110.601
X157.9Y-130.5
X158.3Y-117.2
X158.9Y-125.7
X159.5Y-110.
X159.7Y-125.7
X159.9Y-133.5
X160.9Y-128.7
X161.Y-121.
X161.1Y-130.5
X161.1Y-125.9
X161.3Y-129.5
X161.7Y-115.4
X162.5Y-123.8
X163.4Y-102.4
X163.9Y-128.2
X164.2Y-102.4
X165.5Y-108.2
X166.Y-124.6
X166.1Y-125.7
X166.2Y-115.5
X166.3Y-108.2
X167.2Y-119.8
X167.6Y-93.1
X168.2Y-124.7
X171.Y-125.5
X172.5Y-119.2
X173.7Y-96.7
X176.3Y-118.6
X176.3Y-119.1
X176.3Y-119.6
X176.8Y-118.6
X176.8Y-119.1
X176.8Y-119.6
X177.54Y-118.71
X177.54Y-118.71
X178.25Y-128.
X178.25Y-130.5
X178.25Y-133.
X178.75Y-128.
X178.75Y-130.5
X178.75Y-133.
X183.5Y-118.75
X183.6Y-123.8
X186.1Y-132.6
X186.6Y-131.4
X189.Y-119.
X189.Y-119.75
X189.Y-120.5
X189.Y-121.25
X189.Y-122.
X189.Y-122.75
X189.Y-123.5
X189.875Y-119.
X189.875Y-119.75
X189.875Y-120.5
X189.875Y-121.25
X189.875Y-122.
X189.875Y-122.75
X189.875Y-123.5
X190.75Y-119.
X190.75Y-119.75
X190.75Y-120.5
X190.75Y-121.25
X190.75Y-122.
X190.75Y-122.75
X190.75Y-123.5
X191.4Y-92.6
X191.4Y-93.2
X191.4Y-93.8
X191.4Y-94.4
X192.Y-92.6
X192.Y-93.2
X192.Y-93.8
X192.Y-94.4
X192.6Y-92.6
X192.6Y-93.2
X192.6Y-93.8
X192.6Y-94.4
T2
X178.028Y-136.15
X178.028Y-137.85
X179.5Y-135.3
X179.5Y-138.7
X180.972Y-136.15
X180.972Y-137.85
X183.028Y-136.15
X183.028Y-137.85
X184.5Y-135.3
X184.5Y-138.7
X185.972Y-136.15
X185.972Y-137.85
T3
X133.8Y-94.4
X136.8Y-106.4
X145.9Y-127.6
X154.1Y-131.4
T4
X168.75Y-137.
X170.75Y-137.
X140.5Y-135.5
X140.5Y-137.5
X160.Y-94.1
X160.Y-96.1
X160.Y-98.1
X160.Y-100.1
X146.Y-135.5
X146.Y-137.5
T5
X146.5Y-93.38
X146.5Y-101.
X149.04Y-93.38
X149.04Y-101.
X151.58Y-93.38
X151.58Y-101.
X154.12Y-93.38
X154.12Y-101.
T6
X167.5Y-101.
X177.5Y-101.
T7
X134.Y-117.38
X134.Y-119.92
X134.Y-122.46
X134.Y-125.
X136.54Y-117.38
X136.54Y-119.92
X136.54Y-122.46
X136.54Y-125.
X139.08Y-117.38
X139.08Y-119.92
X139.08Y-122.46
X139.08Y-125.
X138.37Y-86.23
X138.37Y-88.77
X140.91Y-86.23
X140.91Y-88.77
X143.45Y-86.23
X143.45Y-88.77
X145.99Y-86.23
X145.99Y-88.77
X148.53Y-86.23
X148.53Y-88.77
X151.07Y-86.23
X151.07Y-88.77
X153.61Y-86.23
X153.61Y-88.77
X156.15Y-86.23
X156.15Y-88.77
X158.69Y-86.23
X158.69Y-88.77
X161.23Y-86.23
X161.23Y-88.77
X163.77Y-86.23
X163.77Y-88.77
X166.31Y-86.23
X166.31Y-88.77
X168.85Y-86.23
X168.85Y-88.77
X171.39Y-86.23
X171.39Y-88.77
X173.93Y-86.23
X173.93Y-88.77
X176.47Y-86.23
X176.47Y-88.77
X179.01Y-86.23
X179.01Y-88.77
X181.55Y-86.23
X181.55Y-88.77
X184.09Y-86.23
X184.09Y-88.77
X186.63Y-86.23
X186.63Y-88.77
T8
X131.75Y-129.5
X134.29Y-129.5
X136.83Y-129.5
T9
X179.5Y-137.
X184.5Y-137.
T10
X139.64Y-87.5
X185.36Y-87.5
T11
X191.5Y-136.5
X133.5Y-87.5
X133.5Y-136.5
X191.5Y-87.5
T0
M30
