G04 #@! TF.GenerationSoftware,KiCad,Pcbnew,5.0.0-rc2-dev-unknown-41ac458~64~ubuntu17.10.1*
G04 #@! TF.CreationDate,2018-04-19T23:44:08+03:00*
G04 #@! TF.ProjectId,obc-drone-hat,6F62632D64726F6E652D6861742E6B69,rev?*
G04 #@! TF.SameCoordinates,Original*
G04 #@! TF.FileFunction,Legend,Top*
G04 #@! TF.FilePolarity,Positive*
%FSLAX46Y46*%
G04 Gerber Fmt 4.6, Leading zero omitted, Abs format (unit mm)*
G04 Created by KiCad (PCBNEW 5.0.0-rc2-dev-unknown-41ac458~64~ubuntu17.10.1) date Thu Apr 19 23:44:08 2018*
%MOMM*%
%LPD*%
G01*
G04 APERTURE LIST*
%ADD10C,0.300000*%
%ADD11C,0.120000*%
%ADD12C,0.150000*%
%ADD13C,0.800000*%
G04 APERTURE END LIST*
D10*
X186678571Y-134607142D02*
X187821428Y-134607142D01*
X174928571Y-138357142D02*
X176071428Y-138357142D01*
X175500000Y-138928571D02*
X175500000Y-137785714D01*
D11*
X183550000Y-125760000D02*
X182450000Y-125760000D01*
X183550000Y-126450000D02*
X183550000Y-125760000D01*
X185050000Y-126450000D02*
X183550000Y-126450000D01*
X183550000Y-116740000D02*
X178425000Y-116740000D01*
X183550000Y-116050000D02*
X183550000Y-116740000D01*
X185050000Y-116050000D02*
X183550000Y-116050000D01*
X171510000Y-127220000D02*
X171510000Y-126780000D01*
X170490000Y-127220000D02*
X170490000Y-126780000D01*
X170490000Y-123780000D02*
X170490000Y-124220000D01*
X171510000Y-123780000D02*
X171510000Y-124220000D01*
X155780000Y-117010000D02*
X156220000Y-117010000D01*
X155780000Y-115990000D02*
X156220000Y-115990000D01*
X165490000Y-122780000D02*
X165490000Y-123220000D01*
X166510000Y-122780000D02*
X166510000Y-123220000D01*
X153510000Y-126720000D02*
X153510000Y-126280000D01*
X152490000Y-126720000D02*
X152490000Y-126280000D01*
X163220000Y-128990000D02*
X162780000Y-128990000D01*
X163220000Y-130010000D02*
X162780000Y-130010000D01*
X187010000Y-129720000D02*
X187010000Y-129280000D01*
X185990000Y-129720000D02*
X185990000Y-129280000D01*
X152220000Y-137490000D02*
X151780000Y-137490000D01*
X152220000Y-138510000D02*
X151780000Y-138510000D01*
X152220000Y-130490000D02*
X151780000Y-130490000D01*
X152220000Y-131510000D02*
X151780000Y-131510000D01*
X153280000Y-114510000D02*
X153720000Y-114510000D01*
X153280000Y-113490000D02*
X153720000Y-113490000D01*
X153280000Y-113010000D02*
X153720000Y-113010000D01*
X153280000Y-111990000D02*
X153720000Y-111990000D01*
X160010000Y-112120000D02*
X160010000Y-111680000D01*
X158990000Y-112120000D02*
X158990000Y-111680000D01*
X179280000Y-115260000D02*
X179720000Y-115260000D01*
X179280000Y-114240000D02*
X179720000Y-114240000D01*
X181350000Y-133910000D02*
X182650000Y-133910000D01*
X181350000Y-132090000D02*
X182650000Y-132090000D01*
X181350000Y-131410000D02*
X182650000Y-131410000D01*
X181350000Y-129590000D02*
X182650000Y-129590000D01*
X181350000Y-128910000D02*
X182650000Y-128910000D01*
X181350000Y-127090000D02*
X182650000Y-127090000D01*
X192870000Y-102210000D02*
X183210000Y-102210000D01*
X193630000Y-101450000D02*
X192870000Y-102210000D01*
X192870000Y-91790000D02*
X193630000Y-92550000D01*
X183210000Y-91790000D02*
X192870000Y-91790000D01*
X183210000Y-102210000D02*
X183210000Y-98560000D01*
X183210000Y-91790000D02*
X183210000Y-95440000D01*
X193630000Y-92550000D02*
X193630000Y-95440000D01*
X193630000Y-101450000D02*
X193630000Y-98560000D01*
X153610000Y-135400000D02*
X153610000Y-132950000D01*
X150390000Y-133600000D02*
X150390000Y-135400000D01*
D12*
X178250000Y-98550000D02*
X180000000Y-98550000D01*
X178250000Y-92795000D02*
X172750000Y-92795000D01*
X178250000Y-99205000D02*
X172750000Y-99205000D01*
X178250000Y-92795000D02*
X178250000Y-93545000D01*
X172750000Y-92795000D02*
X172750000Y-93545000D01*
X172750000Y-99205000D02*
X172750000Y-98455000D01*
X178250000Y-99205000D02*
X178250000Y-98550000D01*
D11*
X163060000Y-119440000D02*
X162640000Y-119440000D01*
X163060000Y-126560000D02*
X163060000Y-126140000D01*
X163060000Y-126140000D02*
X164440000Y-126140000D01*
X155940000Y-126560000D02*
X156360000Y-126560000D01*
X155940000Y-119440000D02*
X156360000Y-119440000D01*
X163060000Y-126560000D02*
X162640000Y-126560000D01*
X163060000Y-119440000D02*
X163060000Y-119860000D01*
X155940000Y-119440000D02*
X155940000Y-119860000D01*
X155940000Y-126560000D02*
X155940000Y-126140000D01*
X166300000Y-133160000D02*
X167700000Y-133160000D01*
X167700000Y-130840000D02*
X165800000Y-130840000D01*
X187350000Y-127250000D02*
X187350000Y-128400000D01*
X194650000Y-127250000D02*
X187350000Y-127250000D01*
X194650000Y-132750000D02*
X187350000Y-132750000D01*
X194300000Y-102700000D02*
X194300000Y-105700000D01*
X181700000Y-102700000D02*
X194300000Y-102700000D01*
X181700000Y-105700000D02*
X181700000Y-102700000D01*
X181700000Y-115300000D02*
X181700000Y-112300000D01*
X194300000Y-115300000D02*
X181700000Y-115300000D01*
X194300000Y-112300000D02*
X194300000Y-115300000D01*
X168280000Y-98010000D02*
X168720000Y-98010000D01*
X168280000Y-96990000D02*
X168720000Y-96990000D01*
X168280000Y-96510000D02*
X168720000Y-96510000D01*
X168280000Y-95490000D02*
X168720000Y-95490000D01*
X168280000Y-95010000D02*
X168720000Y-95010000D01*
X168280000Y-93990000D02*
X168720000Y-93990000D01*
X173010000Y-133220000D02*
X173010000Y-132780000D01*
X171990000Y-133220000D02*
X171990000Y-132780000D01*
X159720000Y-129990000D02*
X159280000Y-129990000D01*
X159720000Y-131010000D02*
X159280000Y-131010000D01*
X173010000Y-130220000D02*
X173010000Y-129780000D01*
X171990000Y-130220000D02*
X171990000Y-129780000D01*
X171990000Y-120780000D02*
X171990000Y-121220000D01*
X173010000Y-120780000D02*
X173010000Y-121220000D01*
X173010000Y-127220000D02*
X173010000Y-126780000D01*
X171990000Y-127220000D02*
X171990000Y-126780000D01*
X171990000Y-123780000D02*
X171990000Y-124220000D01*
X173010000Y-123780000D02*
X173010000Y-124220000D01*
X150010000Y-131720000D02*
X150010000Y-131280000D01*
X148990000Y-131720000D02*
X148990000Y-131280000D01*
X145490000Y-129280000D02*
X145490000Y-129720000D01*
X146510000Y-129280000D02*
X146510000Y-129720000D01*
X167220000Y-129290000D02*
X166780000Y-129290000D01*
X167220000Y-130310000D02*
X166780000Y-130310000D01*
X164720000Y-114990000D02*
X164280000Y-114990000D01*
X164720000Y-116010000D02*
X164280000Y-116010000D01*
X158010000Y-105970000D02*
X158010000Y-105530000D01*
X156990000Y-105970000D02*
X156990000Y-105530000D01*
X153485000Y-97866667D02*
X154755000Y-97866667D01*
X154685000Y-99220000D02*
X154685000Y-97866667D01*
X154565000Y-99220000D02*
X154565000Y-97866667D01*
X154445000Y-99220000D02*
X154445000Y-97866667D01*
X154325000Y-99220000D02*
X154325000Y-97866667D01*
X154205000Y-99220000D02*
X154205000Y-97866667D01*
X154085000Y-99220000D02*
X154085000Y-97866667D01*
X153965000Y-99220000D02*
X153965000Y-97866667D01*
X153845000Y-99220000D02*
X153845000Y-97866667D01*
X153725000Y-99220000D02*
X153725000Y-97866667D01*
X153605000Y-99220000D02*
X153605000Y-97866667D01*
X153485000Y-95160000D02*
X153485000Y-99220000D01*
X154755000Y-95160000D02*
X153485000Y-95160000D01*
X154755000Y-99220000D02*
X154755000Y-95160000D01*
X153485000Y-99220000D02*
X154755000Y-99220000D01*
X150945000Y-97866667D02*
X152215000Y-97866667D01*
X152145000Y-99220000D02*
X152145000Y-97866667D01*
X152025000Y-99220000D02*
X152025000Y-97866667D01*
X151905000Y-99220000D02*
X151905000Y-97866667D01*
X151785000Y-99220000D02*
X151785000Y-97866667D01*
X151665000Y-99220000D02*
X151665000Y-97866667D01*
X151545000Y-99220000D02*
X151545000Y-97866667D01*
X151425000Y-99220000D02*
X151425000Y-97866667D01*
X151305000Y-99220000D02*
X151305000Y-97866667D01*
X151185000Y-99220000D02*
X151185000Y-97866667D01*
X151065000Y-99220000D02*
X151065000Y-97866667D01*
X150945000Y-95160000D02*
X150945000Y-99220000D01*
X152215000Y-95160000D02*
X150945000Y-95160000D01*
X152215000Y-99220000D02*
X152215000Y-95160000D01*
X150945000Y-99220000D02*
X152215000Y-99220000D01*
X148405000Y-97866667D02*
X149675000Y-97866667D01*
X149605000Y-99220000D02*
X149605000Y-97866667D01*
X149485000Y-99220000D02*
X149485000Y-97866667D01*
X149365000Y-99220000D02*
X149365000Y-97866667D01*
X149245000Y-99220000D02*
X149245000Y-97866667D01*
X149125000Y-99220000D02*
X149125000Y-97866667D01*
X149005000Y-99220000D02*
X149005000Y-97866667D01*
X148885000Y-99220000D02*
X148885000Y-97866667D01*
X148765000Y-99220000D02*
X148765000Y-97866667D01*
X148645000Y-99220000D02*
X148645000Y-97866667D01*
X148525000Y-99220000D02*
X148525000Y-97866667D01*
X148405000Y-95160000D02*
X148405000Y-99220000D01*
X149675000Y-95160000D02*
X148405000Y-95160000D01*
X149675000Y-99220000D02*
X149675000Y-95160000D01*
X148405000Y-99220000D02*
X149675000Y-99220000D01*
X145865000Y-97866667D02*
X147135000Y-97866667D01*
X147065000Y-99220000D02*
X147065000Y-97866667D01*
X146945000Y-99220000D02*
X146945000Y-97866667D01*
X146825000Y-99220000D02*
X146825000Y-97866667D01*
X146705000Y-99220000D02*
X146705000Y-97866667D01*
X146585000Y-99220000D02*
X146585000Y-97866667D01*
X146465000Y-99220000D02*
X146465000Y-97866667D01*
X146345000Y-99220000D02*
X146345000Y-97866667D01*
X146225000Y-99220000D02*
X146225000Y-97866667D01*
X146105000Y-99220000D02*
X146105000Y-97866667D01*
X145985000Y-99220000D02*
X145985000Y-97866667D01*
X145865000Y-95160000D02*
X145865000Y-99220000D01*
X147135000Y-95160000D02*
X145865000Y-95160000D01*
X147135000Y-99220000D02*
X147135000Y-95160000D01*
X145865000Y-99220000D02*
X147135000Y-99220000D01*
X143840000Y-102380000D02*
X145223000Y-102380000D01*
X143840000Y-102380000D02*
X143840000Y-100996000D01*
X144080000Y-92240000D02*
X156540000Y-92240000D01*
X144080000Y-102140000D02*
X156540000Y-102140000D01*
X156540000Y-102140000D02*
X156540000Y-92240000D01*
X144080000Y-102140000D02*
X144080000Y-92240000D01*
X156035000Y-139560000D02*
X164465000Y-139560000D01*
X165735000Y-135290000D02*
X163935000Y-135290000D01*
X165735000Y-136740000D02*
X165735000Y-135290000D01*
X156565000Y-135290000D02*
X156565000Y-134300000D01*
X154765000Y-135290000D02*
X156565000Y-135290000D01*
X154765000Y-136740000D02*
X154765000Y-135290000D01*
X137390000Y-113715000D02*
X137390000Y-105285000D01*
X141860000Y-104015000D02*
X141860000Y-105815000D01*
X140260000Y-104015000D02*
X141860000Y-104015000D01*
X141860000Y-113185000D02*
X142800000Y-113185000D01*
X141860000Y-114985000D02*
X141860000Y-113185000D01*
X140260000Y-114985000D02*
X141860000Y-114985000D01*
X136830000Y-131790000D02*
X136830000Y-132800000D01*
X131750000Y-131790000D02*
X136830000Y-131790000D01*
X131750000Y-132800000D02*
X131750000Y-131790000D01*
X138200000Y-132900000D02*
X130400000Y-132900000D01*
X138200000Y-126850000D02*
X138200000Y-132900000D01*
X130400000Y-126850000D02*
X138200000Y-126850000D01*
X130400000Y-132900000D02*
X130400000Y-126850000D01*
X166390000Y-134890000D02*
X166390000Y-136140000D01*
X167640000Y-134890000D02*
X166390000Y-134890000D01*
X169750000Y-139300000D02*
X169750000Y-138800000D01*
X169850000Y-138800000D02*
X169850000Y-139300000D01*
X169650000Y-138800000D02*
X169850000Y-138800000D01*
X169650000Y-139300000D02*
X169650000Y-138800000D01*
X172810000Y-137800000D02*
X172200000Y-137800000D01*
X172810000Y-136500000D02*
X172200000Y-136500000D01*
X166690000Y-137800000D02*
X167300000Y-137800000D01*
X166690000Y-136500000D02*
X167300000Y-136500000D01*
X170250000Y-135800000D02*
X170250000Y-135190000D01*
X172200000Y-135800000D02*
X170250000Y-135800000D01*
X172200000Y-139300000D02*
X172200000Y-135800000D01*
X167300000Y-139300000D02*
X172200000Y-139300000D01*
X167300000Y-135800000D02*
X167300000Y-139300000D01*
X169250000Y-135800000D02*
X167300000Y-135800000D01*
X169250000Y-135190000D02*
X169250000Y-135800000D01*
X168450000Y-135090000D02*
X168150000Y-135090000D01*
X168150000Y-134990000D02*
X168150000Y-135190000D01*
X168450000Y-134990000D02*
X168150000Y-134990000D01*
X168450000Y-135190000D02*
X168450000Y-134990000D01*
X172810000Y-135190000D02*
X166690000Y-135190000D01*
X172810000Y-139910000D02*
X172810000Y-135190000D01*
X166690000Y-139910000D02*
X172810000Y-139910000D01*
X166690000Y-135190000D02*
X166690000Y-139910000D01*
X162110000Y-91740000D02*
X160860000Y-91740000D01*
X162110000Y-92990000D02*
X162110000Y-91740000D01*
X157700000Y-99100000D02*
X158200000Y-99100000D01*
X158200000Y-99200000D02*
X157700000Y-99200000D01*
X158200000Y-99000000D02*
X158200000Y-99200000D01*
X157700000Y-99000000D02*
X158200000Y-99000000D01*
X157700000Y-97100000D02*
X158200000Y-97100000D01*
X158200000Y-97200000D02*
X157700000Y-97200000D01*
X158200000Y-97000000D02*
X158200000Y-97200000D01*
X157700000Y-97000000D02*
X158200000Y-97000000D01*
X157700000Y-95100000D02*
X158200000Y-95100000D01*
X158200000Y-95200000D02*
X157700000Y-95200000D01*
X158200000Y-95000000D02*
X158200000Y-95200000D01*
X157700000Y-95000000D02*
X158200000Y-95000000D01*
X159200000Y-102160000D02*
X159200000Y-101550000D01*
X160500000Y-102160000D02*
X160500000Y-101550000D01*
X159200000Y-92040000D02*
X159200000Y-92650000D01*
X160500000Y-92040000D02*
X160500000Y-92650000D01*
X161200000Y-99600000D02*
X161810000Y-99600000D01*
X161200000Y-101550000D02*
X161200000Y-99600000D01*
X157700000Y-101550000D02*
X161200000Y-101550000D01*
X157700000Y-92650000D02*
X157700000Y-101550000D01*
X161200000Y-92650000D02*
X157700000Y-92650000D01*
X161200000Y-94600000D02*
X161200000Y-92650000D01*
X161810000Y-94600000D02*
X161200000Y-94600000D01*
X161910000Y-93800000D02*
X161910000Y-93500000D01*
X162010000Y-93500000D02*
X161810000Y-93500000D01*
X162010000Y-93800000D02*
X162010000Y-93500000D01*
X161810000Y-93800000D02*
X162010000Y-93800000D01*
X161810000Y-102160000D02*
X161810000Y-92040000D01*
X157090000Y-102160000D02*
X161810000Y-102160000D01*
X157090000Y-92040000D02*
X157090000Y-102160000D01*
X161810000Y-92040000D02*
X157090000Y-92040000D01*
X137390000Y-101715000D02*
X137390000Y-93285000D01*
X141860000Y-92015000D02*
X141860000Y-93815000D01*
X140260000Y-92015000D02*
X141860000Y-92015000D01*
X141860000Y-101185000D02*
X142800000Y-101185000D01*
X141860000Y-102985000D02*
X141860000Y-101185000D01*
X140260000Y-102985000D02*
X141860000Y-102985000D01*
X138390000Y-139860000D02*
X139640000Y-139860000D01*
X138390000Y-138610000D02*
X138390000Y-139860000D01*
X142800000Y-136500000D02*
X142300000Y-136500000D01*
X142300000Y-136400000D02*
X142800000Y-136400000D01*
X142300000Y-136600000D02*
X142300000Y-136400000D01*
X142800000Y-136600000D02*
X142300000Y-136600000D01*
X141300000Y-133440000D02*
X141300000Y-134050000D01*
X140000000Y-133440000D02*
X140000000Y-134050000D01*
X141300000Y-139560000D02*
X141300000Y-138950000D01*
X140000000Y-139560000D02*
X140000000Y-138950000D01*
X139300000Y-136000000D02*
X138690000Y-136000000D01*
X139300000Y-134050000D02*
X139300000Y-136000000D01*
X142800000Y-134050000D02*
X139300000Y-134050000D01*
X142800000Y-138950000D02*
X142800000Y-134050000D01*
X139300000Y-138950000D02*
X142800000Y-138950000D01*
X139300000Y-137000000D02*
X139300000Y-138950000D01*
X138690000Y-137000000D02*
X139300000Y-137000000D01*
X138590000Y-137800000D02*
X138590000Y-138100000D01*
X138490000Y-138100000D02*
X138690000Y-138100000D01*
X138490000Y-137800000D02*
X138490000Y-138100000D01*
X138690000Y-137800000D02*
X138490000Y-137800000D01*
X138690000Y-133440000D02*
X138690000Y-139560000D01*
X143410000Y-133440000D02*
X138690000Y-133440000D01*
X143410000Y-139560000D02*
X143410000Y-133440000D01*
X138690000Y-139560000D02*
X143410000Y-139560000D01*
X143890000Y-139860000D02*
X145140000Y-139860000D01*
X143890000Y-138610000D02*
X143890000Y-139860000D01*
X148300000Y-136500000D02*
X147800000Y-136500000D01*
X147800000Y-136400000D02*
X148300000Y-136400000D01*
X147800000Y-136600000D02*
X147800000Y-136400000D01*
X148300000Y-136600000D02*
X147800000Y-136600000D01*
X146800000Y-133440000D02*
X146800000Y-134050000D01*
X145500000Y-133440000D02*
X145500000Y-134050000D01*
X146800000Y-139560000D02*
X146800000Y-138950000D01*
X145500000Y-139560000D02*
X145500000Y-138950000D01*
X144800000Y-136000000D02*
X144190000Y-136000000D01*
X144800000Y-134050000D02*
X144800000Y-136000000D01*
X148300000Y-134050000D02*
X144800000Y-134050000D01*
X148300000Y-138950000D02*
X148300000Y-134050000D01*
X144800000Y-138950000D02*
X148300000Y-138950000D01*
X144800000Y-137000000D02*
X144800000Y-138950000D01*
X144190000Y-137000000D02*
X144800000Y-137000000D01*
X144090000Y-137800000D02*
X144090000Y-138100000D01*
X143990000Y-138100000D02*
X144190000Y-138100000D01*
X143990000Y-137800000D02*
X143990000Y-138100000D01*
X144190000Y-137800000D02*
X143990000Y-137800000D01*
X144190000Y-133440000D02*
X144190000Y-139560000D01*
X148910000Y-133440000D02*
X144190000Y-133440000D01*
X148910000Y-139560000D02*
X148910000Y-133440000D01*
X144190000Y-139560000D02*
X148910000Y-139560000D01*
X141740000Y-127920000D02*
X143200000Y-127920000D01*
X141740000Y-131080000D02*
X144900000Y-131080000D01*
X141740000Y-131080000D02*
X141740000Y-130150000D01*
X141740000Y-127920000D02*
X141740000Y-128850000D01*
X130940000Y-93285000D02*
X130940000Y-101715000D01*
X135210000Y-102985000D02*
X135210000Y-101185000D01*
X133760000Y-102985000D02*
X135210000Y-102985000D01*
X135210000Y-93815000D02*
X136200000Y-93815000D01*
X135210000Y-92015000D02*
X135210000Y-93815000D01*
X133760000Y-92015000D02*
X135210000Y-92015000D01*
X130940000Y-105285000D02*
X130940000Y-113715000D01*
X135210000Y-114985000D02*
X135210000Y-113185000D01*
X133760000Y-114985000D02*
X135210000Y-114985000D01*
X135210000Y-105815000D02*
X136200000Y-105815000D01*
X135210000Y-104015000D02*
X135210000Y-105815000D01*
X133760000Y-104015000D02*
X135210000Y-104015000D01*
D12*
X148375000Y-110625000D02*
X148900000Y-110625000D01*
X148375000Y-105375000D02*
X148900000Y-105375000D01*
X153625000Y-105375000D02*
X153100000Y-105375000D01*
X153625000Y-110625000D02*
X153100000Y-110625000D01*
X148375000Y-105375000D02*
X148375000Y-105900000D01*
X153625000Y-105375000D02*
X153625000Y-105900000D01*
X148375000Y-110625000D02*
X148375000Y-110100000D01*
X160950000Y-112875000D02*
X160950000Y-114400000D01*
X171325000Y-112875000D02*
X171325000Y-105125000D01*
X160675000Y-112875000D02*
X160675000Y-105125000D01*
X171325000Y-112875000D02*
X170970000Y-112875000D01*
X171325000Y-105125000D02*
X170970000Y-105125000D01*
X160675000Y-105125000D02*
X161030000Y-105125000D01*
X160675000Y-112875000D02*
X160950000Y-112875000D01*
D10*
X180000000Y-110700000D02*
X180000000Y-105250000D01*
X176000000Y-110700000D02*
X176000000Y-105250000D01*
D12*
G36*
X132730000Y-116110000D02*
X130190000Y-116110000D01*
X130190000Y-126270000D01*
X132730000Y-126270000D01*
X132730000Y-116110000D01*
G37*
X132730000Y-116110000D02*
X130190000Y-116110000D01*
X130190000Y-126270000D01*
X132730000Y-126270000D01*
X132730000Y-116110000D01*
X134000000Y-126270000D02*
X135270000Y-126270000D01*
X132730000Y-126270000D02*
X134000000Y-126270000D01*
X135270000Y-123730000D02*
X132730000Y-123730000D01*
X135270000Y-126270000D02*
X135270000Y-123730000D01*
X140350000Y-126270000D02*
X135270000Y-126270000D01*
X140350000Y-116110000D02*
X132730000Y-116110000D01*
X140350000Y-126270000D02*
X140350000Y-116110000D01*
D13*
X132730000Y-117380000D02*
X123840000Y-117380000D01*
X132730000Y-119920000D02*
X123840000Y-119920000D01*
X132730000Y-122460000D02*
X123840000Y-122460000D01*
X132730000Y-125000000D02*
X123840000Y-125000000D01*
D12*
G36*
X137100000Y-87500000D02*
X139640000Y-87500000D01*
X139640000Y-90040000D01*
X137100000Y-90040000D01*
X137100000Y-87500000D01*
G37*
X137100000Y-87500000D02*
X139640000Y-87500000D01*
X139640000Y-90040000D01*
X137100000Y-90040000D01*
X137100000Y-87500000D01*
X137100000Y-84960000D02*
X187900000Y-84960000D01*
X187900000Y-90040000D02*
X137100000Y-90040000D01*
X187900000Y-84960000D02*
X187900000Y-90040000D01*
X137100000Y-90040000D02*
X137100000Y-84960000D01*
D10*
X187100000Y-136100000D02*
X185400000Y-134400000D01*
X187100000Y-137900000D02*
X187100000Y-136100000D01*
X185400000Y-139600000D02*
X187100000Y-137900000D01*
X176900000Y-139600000D02*
X185400000Y-139600000D01*
X176900000Y-134400000D02*
X185400000Y-134400000D01*
X176900000Y-134400000D02*
X176900000Y-139600000D01*
D12*
X177702380Y-125166666D02*
X176702380Y-125166666D01*
X176702380Y-124928571D01*
X176750000Y-124785714D01*
X176845238Y-124690476D01*
X176940476Y-124642857D01*
X177130952Y-124595238D01*
X177273809Y-124595238D01*
X177464285Y-124642857D01*
X177559523Y-124690476D01*
X177654761Y-124785714D01*
X177702380Y-124928571D01*
X177702380Y-125166666D01*
X177416666Y-124214285D02*
X177416666Y-123738095D01*
X177702380Y-124309523D02*
X176702380Y-123976190D01*
X177702380Y-123642857D01*
X176797619Y-123357142D02*
X176750000Y-123309523D01*
X176702380Y-123214285D01*
X176702380Y-122976190D01*
X176750000Y-122880952D01*
X176797619Y-122833333D01*
X176892857Y-122785714D01*
X176988095Y-122785714D01*
X177130952Y-122833333D01*
X177702380Y-123404761D01*
X177702380Y-122785714D01*
X168607142Y-127666666D02*
X168654761Y-127714285D01*
X168702380Y-127857142D01*
X168702380Y-127952380D01*
X168654761Y-128095238D01*
X168559523Y-128190476D01*
X168464285Y-128238095D01*
X168273809Y-128285714D01*
X168130952Y-128285714D01*
X167940476Y-128238095D01*
X167845238Y-128190476D01*
X167750000Y-128095238D01*
X167702380Y-127952380D01*
X167702380Y-127857142D01*
X167750000Y-127714285D01*
X167797619Y-127666666D01*
X168702380Y-126714285D02*
X168702380Y-127285714D01*
X168702380Y-127000000D02*
X167702380Y-127000000D01*
X167845238Y-127095238D01*
X167940476Y-127190476D01*
X167988095Y-127285714D01*
X168607142Y-124666666D02*
X168654761Y-124714285D01*
X168702380Y-124857142D01*
X168702380Y-124952380D01*
X168654761Y-125095238D01*
X168559523Y-125190476D01*
X168464285Y-125238095D01*
X168273809Y-125285714D01*
X168130952Y-125285714D01*
X167940476Y-125238095D01*
X167845238Y-125190476D01*
X167750000Y-125095238D01*
X167702380Y-124952380D01*
X167702380Y-124857142D01*
X167750000Y-124714285D01*
X167797619Y-124666666D01*
X167797619Y-124285714D02*
X167750000Y-124238095D01*
X167702380Y-124142857D01*
X167702380Y-123904761D01*
X167750000Y-123809523D01*
X167797619Y-123761904D01*
X167892857Y-123714285D01*
X167988095Y-123714285D01*
X168130952Y-123761904D01*
X168702380Y-124333333D01*
X168702380Y-123714285D01*
X155833333Y-115207142D02*
X155785714Y-115254761D01*
X155642857Y-115302380D01*
X155547619Y-115302380D01*
X155404761Y-115254761D01*
X155309523Y-115159523D01*
X155261904Y-115064285D01*
X155214285Y-114873809D01*
X155214285Y-114730952D01*
X155261904Y-114540476D01*
X155309523Y-114445238D01*
X155404761Y-114350000D01*
X155547619Y-114302380D01*
X155642857Y-114302380D01*
X155785714Y-114350000D01*
X155833333Y-114397619D01*
X156166666Y-114302380D02*
X156785714Y-114302380D01*
X156452380Y-114683333D01*
X156595238Y-114683333D01*
X156690476Y-114730952D01*
X156738095Y-114778571D01*
X156785714Y-114873809D01*
X156785714Y-115111904D01*
X156738095Y-115207142D01*
X156690476Y-115254761D01*
X156595238Y-115302380D01*
X156309523Y-115302380D01*
X156214285Y-115254761D01*
X156166666Y-115207142D01*
X168007142Y-122416666D02*
X168054761Y-122464285D01*
X168102380Y-122607142D01*
X168102380Y-122702380D01*
X168054761Y-122845238D01*
X167959523Y-122940476D01*
X167864285Y-122988095D01*
X167673809Y-123035714D01*
X167530952Y-123035714D01*
X167340476Y-122988095D01*
X167245238Y-122940476D01*
X167150000Y-122845238D01*
X167102380Y-122702380D01*
X167102380Y-122607142D01*
X167150000Y-122464285D01*
X167197619Y-122416666D01*
X167435714Y-121559523D02*
X168102380Y-121559523D01*
X167054761Y-121797619D02*
X167769047Y-122035714D01*
X167769047Y-121416666D01*
X151707142Y-126666666D02*
X151754761Y-126714285D01*
X151802380Y-126857142D01*
X151802380Y-126952380D01*
X151754761Y-127095238D01*
X151659523Y-127190476D01*
X151564285Y-127238095D01*
X151373809Y-127285714D01*
X151230952Y-127285714D01*
X151040476Y-127238095D01*
X150945238Y-127190476D01*
X150850000Y-127095238D01*
X150802380Y-126952380D01*
X150802380Y-126857142D01*
X150850000Y-126714285D01*
X150897619Y-126666666D01*
X150802380Y-125761904D02*
X150802380Y-126238095D01*
X151278571Y-126285714D01*
X151230952Y-126238095D01*
X151183333Y-126142857D01*
X151183333Y-125904761D01*
X151230952Y-125809523D01*
X151278571Y-125761904D01*
X151373809Y-125714285D01*
X151611904Y-125714285D01*
X151707142Y-125761904D01*
X151754761Y-125809523D01*
X151802380Y-125904761D01*
X151802380Y-126142857D01*
X151754761Y-126238095D01*
X151707142Y-126285714D01*
X162833333Y-131507142D02*
X162785714Y-131554761D01*
X162642857Y-131602380D01*
X162547619Y-131602380D01*
X162404761Y-131554761D01*
X162309523Y-131459523D01*
X162261904Y-131364285D01*
X162214285Y-131173809D01*
X162214285Y-131030952D01*
X162261904Y-130840476D01*
X162309523Y-130745238D01*
X162404761Y-130650000D01*
X162547619Y-130602380D01*
X162642857Y-130602380D01*
X162785714Y-130650000D01*
X162833333Y-130697619D01*
X163690476Y-130602380D02*
X163500000Y-130602380D01*
X163404761Y-130650000D01*
X163357142Y-130697619D01*
X163261904Y-130840476D01*
X163214285Y-131030952D01*
X163214285Y-131411904D01*
X163261904Y-131507142D01*
X163309523Y-131554761D01*
X163404761Y-131602380D01*
X163595238Y-131602380D01*
X163690476Y-131554761D01*
X163738095Y-131507142D01*
X163785714Y-131411904D01*
X163785714Y-131173809D01*
X163738095Y-131078571D01*
X163690476Y-131030952D01*
X163595238Y-130983333D01*
X163404761Y-130983333D01*
X163309523Y-131030952D01*
X163261904Y-131078571D01*
X163214285Y-131173809D01*
X185857142Y-132416666D02*
X185904761Y-132464285D01*
X185952380Y-132607142D01*
X185952380Y-132702380D01*
X185904761Y-132845238D01*
X185809523Y-132940476D01*
X185714285Y-132988095D01*
X185523809Y-133035714D01*
X185380952Y-133035714D01*
X185190476Y-132988095D01*
X185095238Y-132940476D01*
X185000000Y-132845238D01*
X184952380Y-132702380D01*
X184952380Y-132607142D01*
X185000000Y-132464285D01*
X185047619Y-132416666D01*
X185380952Y-131845238D02*
X185333333Y-131940476D01*
X185285714Y-131988095D01*
X185190476Y-132035714D01*
X185142857Y-132035714D01*
X185047619Y-131988095D01*
X185000000Y-131940476D01*
X184952380Y-131845238D01*
X184952380Y-131654761D01*
X185000000Y-131559523D01*
X185047619Y-131511904D01*
X185142857Y-131464285D01*
X185190476Y-131464285D01*
X185285714Y-131511904D01*
X185333333Y-131559523D01*
X185380952Y-131654761D01*
X185380952Y-131845238D01*
X185428571Y-131940476D01*
X185476190Y-131988095D01*
X185571428Y-132035714D01*
X185761904Y-132035714D01*
X185857142Y-131988095D01*
X185904761Y-131940476D01*
X185952380Y-131845238D01*
X185952380Y-131654761D01*
X185904761Y-131559523D01*
X185857142Y-131511904D01*
X185761904Y-131464285D01*
X185571428Y-131464285D01*
X185476190Y-131511904D01*
X185428571Y-131559523D01*
X185380952Y-131654761D01*
X151833333Y-139757142D02*
X151785714Y-139804761D01*
X151642857Y-139852380D01*
X151547619Y-139852380D01*
X151404761Y-139804761D01*
X151309523Y-139709523D01*
X151261904Y-139614285D01*
X151214285Y-139423809D01*
X151214285Y-139280952D01*
X151261904Y-139090476D01*
X151309523Y-138995238D01*
X151404761Y-138900000D01*
X151547619Y-138852380D01*
X151642857Y-138852380D01*
X151785714Y-138900000D01*
X151833333Y-138947619D01*
X152309523Y-139852380D02*
X152500000Y-139852380D01*
X152595238Y-139804761D01*
X152642857Y-139757142D01*
X152738095Y-139614285D01*
X152785714Y-139423809D01*
X152785714Y-139042857D01*
X152738095Y-138947619D01*
X152690476Y-138900000D01*
X152595238Y-138852380D01*
X152404761Y-138852380D01*
X152309523Y-138900000D01*
X152261904Y-138947619D01*
X152214285Y-139042857D01*
X152214285Y-139280952D01*
X152261904Y-139376190D01*
X152309523Y-139423809D01*
X152404761Y-139471428D01*
X152595238Y-139471428D01*
X152690476Y-139423809D01*
X152738095Y-139376190D01*
X152785714Y-139280952D01*
X151357142Y-129857142D02*
X151309523Y-129904761D01*
X151166666Y-129952380D01*
X151071428Y-129952380D01*
X150928571Y-129904761D01*
X150833333Y-129809523D01*
X150785714Y-129714285D01*
X150738095Y-129523809D01*
X150738095Y-129380952D01*
X150785714Y-129190476D01*
X150833333Y-129095238D01*
X150928571Y-129000000D01*
X151071428Y-128952380D01*
X151166666Y-128952380D01*
X151309523Y-129000000D01*
X151357142Y-129047619D01*
X152309523Y-129952380D02*
X151738095Y-129952380D01*
X152023809Y-129952380D02*
X152023809Y-128952380D01*
X151928571Y-129095238D01*
X151833333Y-129190476D01*
X151738095Y-129238095D01*
X152928571Y-128952380D02*
X153023809Y-128952380D01*
X153119047Y-129000000D01*
X153166666Y-129047619D01*
X153214285Y-129142857D01*
X153261904Y-129333333D01*
X153261904Y-129571428D01*
X153214285Y-129761904D01*
X153166666Y-129857142D01*
X153119047Y-129904761D01*
X153023809Y-129952380D01*
X152928571Y-129952380D01*
X152833333Y-129904761D01*
X152785714Y-129857142D01*
X152738095Y-129761904D01*
X152690476Y-129571428D01*
X152690476Y-129333333D01*
X152738095Y-129142857D01*
X152785714Y-129047619D01*
X152833333Y-129000000D01*
X152928571Y-128952380D01*
X149857142Y-114607142D02*
X149809523Y-114654761D01*
X149666666Y-114702380D01*
X149571428Y-114702380D01*
X149428571Y-114654761D01*
X149333333Y-114559523D01*
X149285714Y-114464285D01*
X149238095Y-114273809D01*
X149238095Y-114130952D01*
X149285714Y-113940476D01*
X149333333Y-113845238D01*
X149428571Y-113750000D01*
X149571428Y-113702380D01*
X149666666Y-113702380D01*
X149809523Y-113750000D01*
X149857142Y-113797619D01*
X150809523Y-114702380D02*
X150238095Y-114702380D01*
X150523809Y-114702380D02*
X150523809Y-113702380D01*
X150428571Y-113845238D01*
X150333333Y-113940476D01*
X150238095Y-113988095D01*
X151190476Y-113797619D02*
X151238095Y-113750000D01*
X151333333Y-113702380D01*
X151571428Y-113702380D01*
X151666666Y-113750000D01*
X151714285Y-113797619D01*
X151761904Y-113892857D01*
X151761904Y-113988095D01*
X151714285Y-114130952D01*
X151142857Y-114702380D01*
X151761904Y-114702380D01*
X149857142Y-113357142D02*
X149809523Y-113404761D01*
X149666666Y-113452380D01*
X149571428Y-113452380D01*
X149428571Y-113404761D01*
X149333333Y-113309523D01*
X149285714Y-113214285D01*
X149238095Y-113023809D01*
X149238095Y-112880952D01*
X149285714Y-112690476D01*
X149333333Y-112595238D01*
X149428571Y-112500000D01*
X149571428Y-112452380D01*
X149666666Y-112452380D01*
X149809523Y-112500000D01*
X149857142Y-112547619D01*
X150809523Y-113452380D02*
X150238095Y-113452380D01*
X150523809Y-113452380D02*
X150523809Y-112452380D01*
X150428571Y-112595238D01*
X150333333Y-112690476D01*
X150238095Y-112738095D01*
X151142857Y-112452380D02*
X151761904Y-112452380D01*
X151428571Y-112833333D01*
X151571428Y-112833333D01*
X151666666Y-112880952D01*
X151714285Y-112928571D01*
X151761904Y-113023809D01*
X151761904Y-113261904D01*
X151714285Y-113357142D01*
X151666666Y-113404761D01*
X151571428Y-113452380D01*
X151285714Y-113452380D01*
X151190476Y-113404761D01*
X151142857Y-113357142D01*
X158207142Y-112542857D02*
X158254761Y-112590476D01*
X158302380Y-112733333D01*
X158302380Y-112828571D01*
X158254761Y-112971428D01*
X158159523Y-113066666D01*
X158064285Y-113114285D01*
X157873809Y-113161904D01*
X157730952Y-113161904D01*
X157540476Y-113114285D01*
X157445238Y-113066666D01*
X157350000Y-112971428D01*
X157302380Y-112828571D01*
X157302380Y-112733333D01*
X157350000Y-112590476D01*
X157397619Y-112542857D01*
X158302380Y-111590476D02*
X158302380Y-112161904D01*
X158302380Y-111876190D02*
X157302380Y-111876190D01*
X157445238Y-111971428D01*
X157540476Y-112066666D01*
X157588095Y-112161904D01*
X157635714Y-110733333D02*
X158302380Y-110733333D01*
X157254761Y-110971428D02*
X157969047Y-111209523D01*
X157969047Y-110590476D01*
X178857142Y-113457142D02*
X178809523Y-113504761D01*
X178666666Y-113552380D01*
X178571428Y-113552380D01*
X178428571Y-113504761D01*
X178333333Y-113409523D01*
X178285714Y-113314285D01*
X178238095Y-113123809D01*
X178238095Y-112980952D01*
X178285714Y-112790476D01*
X178333333Y-112695238D01*
X178428571Y-112600000D01*
X178571428Y-112552380D01*
X178666666Y-112552380D01*
X178809523Y-112600000D01*
X178857142Y-112647619D01*
X179809523Y-113552380D02*
X179238095Y-113552380D01*
X179523809Y-113552380D02*
X179523809Y-112552380D01*
X179428571Y-112695238D01*
X179333333Y-112790476D01*
X179238095Y-112838095D01*
X180714285Y-112552380D02*
X180238095Y-112552380D01*
X180190476Y-113028571D01*
X180238095Y-112980952D01*
X180333333Y-112933333D01*
X180571428Y-112933333D01*
X180666666Y-112980952D01*
X180714285Y-113028571D01*
X180761904Y-113123809D01*
X180761904Y-113361904D01*
X180714285Y-113457142D01*
X180666666Y-113504761D01*
X180571428Y-113552380D01*
X180333333Y-113552380D01*
X180238095Y-113504761D01*
X180190476Y-113457142D01*
X177107142Y-131607142D02*
X177059523Y-131654761D01*
X176916666Y-131702380D01*
X176821428Y-131702380D01*
X176678571Y-131654761D01*
X176583333Y-131559523D01*
X176535714Y-131464285D01*
X176488095Y-131273809D01*
X176488095Y-131130952D01*
X176535714Y-130940476D01*
X176583333Y-130845238D01*
X176678571Y-130750000D01*
X176821428Y-130702380D01*
X176916666Y-130702380D01*
X177059523Y-130750000D01*
X177107142Y-130797619D01*
X178059523Y-131702380D02*
X177488095Y-131702380D01*
X177773809Y-131702380D02*
X177773809Y-130702380D01*
X177678571Y-130845238D01*
X177583333Y-130940476D01*
X177488095Y-130988095D01*
X178916666Y-130702380D02*
X178726190Y-130702380D01*
X178630952Y-130750000D01*
X178583333Y-130797619D01*
X178488095Y-130940476D01*
X178440476Y-131130952D01*
X178440476Y-131511904D01*
X178488095Y-131607142D01*
X178535714Y-131654761D01*
X178630952Y-131702380D01*
X178821428Y-131702380D01*
X178916666Y-131654761D01*
X178964285Y-131607142D01*
X179011904Y-131511904D01*
X179011904Y-131273809D01*
X178964285Y-131178571D01*
X178916666Y-131130952D01*
X178821428Y-131083333D01*
X178630952Y-131083333D01*
X178535714Y-131130952D01*
X178488095Y-131178571D01*
X178440476Y-131273809D01*
X177107142Y-130357142D02*
X177059523Y-130404761D01*
X176916666Y-130452380D01*
X176821428Y-130452380D01*
X176678571Y-130404761D01*
X176583333Y-130309523D01*
X176535714Y-130214285D01*
X176488095Y-130023809D01*
X176488095Y-129880952D01*
X176535714Y-129690476D01*
X176583333Y-129595238D01*
X176678571Y-129500000D01*
X176821428Y-129452380D01*
X176916666Y-129452380D01*
X177059523Y-129500000D01*
X177107142Y-129547619D01*
X178059523Y-130452380D02*
X177488095Y-130452380D01*
X177773809Y-130452380D02*
X177773809Y-129452380D01*
X177678571Y-129595238D01*
X177583333Y-129690476D01*
X177488095Y-129738095D01*
X178392857Y-129452380D02*
X179059523Y-129452380D01*
X178630952Y-130452380D01*
X177107142Y-129107142D02*
X177059523Y-129154761D01*
X176916666Y-129202380D01*
X176821428Y-129202380D01*
X176678571Y-129154761D01*
X176583333Y-129059523D01*
X176535714Y-128964285D01*
X176488095Y-128773809D01*
X176488095Y-128630952D01*
X176535714Y-128440476D01*
X176583333Y-128345238D01*
X176678571Y-128250000D01*
X176821428Y-128202380D01*
X176916666Y-128202380D01*
X177059523Y-128250000D01*
X177107142Y-128297619D01*
X178059523Y-129202380D02*
X177488095Y-129202380D01*
X177773809Y-129202380D02*
X177773809Y-128202380D01*
X177678571Y-128345238D01*
X177583333Y-128440476D01*
X177488095Y-128488095D01*
X178630952Y-128630952D02*
X178535714Y-128583333D01*
X178488095Y-128535714D01*
X178440476Y-128440476D01*
X178440476Y-128392857D01*
X178488095Y-128297619D01*
X178535714Y-128250000D01*
X178630952Y-128202380D01*
X178821428Y-128202380D01*
X178916666Y-128250000D01*
X178964285Y-128297619D01*
X179011904Y-128392857D01*
X179011904Y-128440476D01*
X178964285Y-128535714D01*
X178916666Y-128583333D01*
X178821428Y-128630952D01*
X178630952Y-128630952D01*
X178535714Y-128678571D01*
X178488095Y-128726190D01*
X178440476Y-128821428D01*
X178440476Y-129011904D01*
X178488095Y-129107142D01*
X178535714Y-129154761D01*
X178630952Y-129202380D01*
X178821428Y-129202380D01*
X178916666Y-129154761D01*
X178964285Y-129107142D01*
X179011904Y-129011904D01*
X179011904Y-128821428D01*
X178964285Y-128726190D01*
X178916666Y-128678571D01*
X178821428Y-128630952D01*
X187777142Y-93607142D02*
X187729523Y-93654761D01*
X187586666Y-93702380D01*
X187491428Y-93702380D01*
X187348571Y-93654761D01*
X187253333Y-93559523D01*
X187205714Y-93464285D01*
X187158095Y-93273809D01*
X187158095Y-93130952D01*
X187205714Y-92940476D01*
X187253333Y-92845238D01*
X187348571Y-92750000D01*
X187491428Y-92702380D01*
X187586666Y-92702380D01*
X187729523Y-92750000D01*
X187777142Y-92797619D01*
X188729523Y-93702380D02*
X188158095Y-93702380D01*
X188443809Y-93702380D02*
X188443809Y-92702380D01*
X188348571Y-92845238D01*
X188253333Y-92940476D01*
X188158095Y-92988095D01*
X189205714Y-93702380D02*
X189396190Y-93702380D01*
X189491428Y-93654761D01*
X189539047Y-93607142D01*
X189634285Y-93464285D01*
X189681904Y-93273809D01*
X189681904Y-92892857D01*
X189634285Y-92797619D01*
X189586666Y-92750000D01*
X189491428Y-92702380D01*
X189300952Y-92702380D01*
X189205714Y-92750000D01*
X189158095Y-92797619D01*
X189110476Y-92892857D01*
X189110476Y-93130952D01*
X189158095Y-93226190D01*
X189205714Y-93273809D01*
X189300952Y-93321428D01*
X189491428Y-93321428D01*
X189586666Y-93273809D01*
X189634285Y-93226190D01*
X189681904Y-93130952D01*
X193819047Y-92101428D02*
X194580952Y-92101428D01*
X194200000Y-92482380D02*
X194200000Y-91720476D01*
X154952380Y-134416666D02*
X153952380Y-134416666D01*
X153952380Y-134178571D01*
X154000000Y-134035714D01*
X154095238Y-133940476D01*
X154190476Y-133892857D01*
X154380952Y-133845238D01*
X154523809Y-133845238D01*
X154714285Y-133892857D01*
X154809523Y-133940476D01*
X154904761Y-134035714D01*
X154952380Y-134178571D01*
X154952380Y-134416666D01*
X154666666Y-133464285D02*
X154666666Y-132988095D01*
X154952380Y-133559523D02*
X153952380Y-133226190D01*
X154952380Y-132892857D01*
X154952380Y-132035714D02*
X154952380Y-132607142D01*
X154952380Y-132321428D02*
X153952380Y-132321428D01*
X154095238Y-132416666D01*
X154190476Y-132511904D01*
X154238095Y-132607142D01*
X174261904Y-100582380D02*
X174261904Y-99582380D01*
X174500000Y-99582380D01*
X174642857Y-99630000D01*
X174738095Y-99725238D01*
X174785714Y-99820476D01*
X174833333Y-100010952D01*
X174833333Y-100153809D01*
X174785714Y-100344285D01*
X174738095Y-100439523D01*
X174642857Y-100534761D01*
X174500000Y-100582380D01*
X174261904Y-100582380D01*
X175261904Y-100582380D02*
X175261904Y-99582380D01*
X175500000Y-99582380D01*
X175642857Y-99630000D01*
X175738095Y-99725238D01*
X175785714Y-99820476D01*
X175833333Y-100010952D01*
X175833333Y-100153809D01*
X175785714Y-100344285D01*
X175738095Y-100439523D01*
X175642857Y-100534761D01*
X175500000Y-100582380D01*
X175261904Y-100582380D01*
X176785714Y-100582380D02*
X176214285Y-100582380D01*
X176500000Y-100582380D02*
X176500000Y-99582380D01*
X176404761Y-99725238D01*
X176309523Y-99820476D01*
X176214285Y-99868095D01*
X163511904Y-119202380D02*
X163511904Y-118202380D01*
X163750000Y-118202380D01*
X163892857Y-118250000D01*
X163988095Y-118345238D01*
X164035714Y-118440476D01*
X164083333Y-118630952D01*
X164083333Y-118773809D01*
X164035714Y-118964285D01*
X163988095Y-119059523D01*
X163892857Y-119154761D01*
X163750000Y-119202380D01*
X163511904Y-119202380D01*
X164511904Y-119202380D02*
X164511904Y-118202380D01*
X164750000Y-118202380D01*
X164892857Y-118250000D01*
X164988095Y-118345238D01*
X165035714Y-118440476D01*
X165083333Y-118630952D01*
X165083333Y-118773809D01*
X165035714Y-118964285D01*
X164988095Y-119059523D01*
X164892857Y-119154761D01*
X164750000Y-119202380D01*
X164511904Y-119202380D01*
X165464285Y-118297619D02*
X165511904Y-118250000D01*
X165607142Y-118202380D01*
X165845238Y-118202380D01*
X165940476Y-118250000D01*
X165988095Y-118297619D01*
X166035714Y-118392857D01*
X166035714Y-118488095D01*
X165988095Y-118630952D01*
X165416666Y-119202380D01*
X166035714Y-119202380D01*
X164761904Y-128702380D02*
X164761904Y-127702380D01*
X165000000Y-127702380D01*
X165142857Y-127750000D01*
X165238095Y-127845238D01*
X165285714Y-127940476D01*
X165333333Y-128130952D01*
X165333333Y-128273809D01*
X165285714Y-128464285D01*
X165238095Y-128559523D01*
X165142857Y-128654761D01*
X165000000Y-128702380D01*
X164761904Y-128702380D01*
X165761904Y-128702380D02*
X165761904Y-127702380D01*
X166000000Y-127702380D01*
X166142857Y-127750000D01*
X166238095Y-127845238D01*
X166285714Y-127940476D01*
X166333333Y-128130952D01*
X166333333Y-128273809D01*
X166285714Y-128464285D01*
X166238095Y-128559523D01*
X166142857Y-128654761D01*
X166000000Y-128702380D01*
X165761904Y-128702380D01*
X166666666Y-127702380D02*
X167285714Y-127702380D01*
X166952380Y-128083333D01*
X167095238Y-128083333D01*
X167190476Y-128130952D01*
X167238095Y-128178571D01*
X167285714Y-128273809D01*
X167285714Y-128511904D01*
X167238095Y-128607142D01*
X167190476Y-128654761D01*
X167095238Y-128702380D01*
X166809523Y-128702380D01*
X166714285Y-128654761D01*
X166666666Y-128607142D01*
X187202380Y-133666666D02*
X186202380Y-133666666D01*
X186678571Y-133666666D02*
X186678571Y-133095238D01*
X187202380Y-133095238D02*
X186202380Y-133095238D01*
X187202380Y-132142857D02*
X187202380Y-132619047D01*
X186202380Y-132619047D01*
X187202380Y-131285714D02*
X187202380Y-131857142D01*
X187202380Y-131571428D02*
X186202380Y-131571428D01*
X186345238Y-131666666D01*
X186440476Y-131761904D01*
X186488095Y-131857142D01*
X192285714Y-132202380D02*
X191714285Y-132202380D01*
X192000000Y-132202380D02*
X192000000Y-131202380D01*
X191904761Y-131345238D01*
X191809523Y-131440476D01*
X191714285Y-131488095D01*
X187833333Y-104952380D02*
X187357142Y-104952380D01*
X187357142Y-103952380D01*
X188690476Y-104952380D02*
X188119047Y-104952380D01*
X188404761Y-104952380D02*
X188404761Y-103952380D01*
X188309523Y-104095238D01*
X188214285Y-104190476D01*
X188119047Y-104238095D01*
X165333333Y-97452380D02*
X165000000Y-96976190D01*
X164761904Y-97452380D02*
X164761904Y-96452380D01*
X165142857Y-96452380D01*
X165238095Y-96500000D01*
X165285714Y-96547619D01*
X165333333Y-96642857D01*
X165333333Y-96785714D01*
X165285714Y-96880952D01*
X165238095Y-96928571D01*
X165142857Y-96976190D01*
X164761904Y-96976190D01*
X166285714Y-97452380D02*
X165714285Y-97452380D01*
X166000000Y-97452380D02*
X166000000Y-96452380D01*
X165904761Y-96595238D01*
X165809523Y-96690476D01*
X165714285Y-96738095D01*
X165333333Y-96202380D02*
X165000000Y-95726190D01*
X164761904Y-96202380D02*
X164761904Y-95202380D01*
X165142857Y-95202380D01*
X165238095Y-95250000D01*
X165285714Y-95297619D01*
X165333333Y-95392857D01*
X165333333Y-95535714D01*
X165285714Y-95630952D01*
X165238095Y-95678571D01*
X165142857Y-95726190D01*
X164761904Y-95726190D01*
X165714285Y-95297619D02*
X165761904Y-95250000D01*
X165857142Y-95202380D01*
X166095238Y-95202380D01*
X166190476Y-95250000D01*
X166238095Y-95297619D01*
X166285714Y-95392857D01*
X166285714Y-95488095D01*
X166238095Y-95630952D01*
X165666666Y-96202380D01*
X166285714Y-96202380D01*
X165333333Y-94952380D02*
X165000000Y-94476190D01*
X164761904Y-94952380D02*
X164761904Y-93952380D01*
X165142857Y-93952380D01*
X165238095Y-94000000D01*
X165285714Y-94047619D01*
X165333333Y-94142857D01*
X165333333Y-94285714D01*
X165285714Y-94380952D01*
X165238095Y-94428571D01*
X165142857Y-94476190D01*
X164761904Y-94476190D01*
X165666666Y-93952380D02*
X166285714Y-93952380D01*
X165952380Y-94333333D01*
X166095238Y-94333333D01*
X166190476Y-94380952D01*
X166238095Y-94428571D01*
X166285714Y-94523809D01*
X166285714Y-94761904D01*
X166238095Y-94857142D01*
X166190476Y-94904761D01*
X166095238Y-94952380D01*
X165809523Y-94952380D01*
X165714285Y-94904761D01*
X165666666Y-94857142D01*
X171302380Y-132666666D02*
X170826190Y-133000000D01*
X171302380Y-133238095D02*
X170302380Y-133238095D01*
X170302380Y-132857142D01*
X170350000Y-132761904D01*
X170397619Y-132714285D01*
X170492857Y-132666666D01*
X170635714Y-132666666D01*
X170730952Y-132714285D01*
X170778571Y-132761904D01*
X170826190Y-132857142D01*
X170826190Y-133238095D01*
X170302380Y-131809523D02*
X170302380Y-132000000D01*
X170350000Y-132095238D01*
X170397619Y-132142857D01*
X170540476Y-132238095D01*
X170730952Y-132285714D01*
X171111904Y-132285714D01*
X171207142Y-132238095D01*
X171254761Y-132190476D01*
X171302380Y-132095238D01*
X171302380Y-131904761D01*
X171254761Y-131809523D01*
X171207142Y-131761904D01*
X171111904Y-131714285D01*
X170873809Y-131714285D01*
X170778571Y-131761904D01*
X170730952Y-131809523D01*
X170683333Y-131904761D01*
X170683333Y-132095238D01*
X170730952Y-132190476D01*
X170778571Y-132238095D01*
X170873809Y-132285714D01*
X159333333Y-132602380D02*
X159000000Y-132126190D01*
X158761904Y-132602380D02*
X158761904Y-131602380D01*
X159142857Y-131602380D01*
X159238095Y-131650000D01*
X159285714Y-131697619D01*
X159333333Y-131792857D01*
X159333333Y-131935714D01*
X159285714Y-132030952D01*
X159238095Y-132078571D01*
X159142857Y-132126190D01*
X158761904Y-132126190D01*
X159666666Y-131602380D02*
X160333333Y-131602380D01*
X159904761Y-132602380D01*
X171302380Y-130166666D02*
X170826190Y-130500000D01*
X171302380Y-130738095D02*
X170302380Y-130738095D01*
X170302380Y-130357142D01*
X170350000Y-130261904D01*
X170397619Y-130214285D01*
X170492857Y-130166666D01*
X170635714Y-130166666D01*
X170730952Y-130214285D01*
X170778571Y-130261904D01*
X170826190Y-130357142D01*
X170826190Y-130738095D01*
X170730952Y-129595238D02*
X170683333Y-129690476D01*
X170635714Y-129738095D01*
X170540476Y-129785714D01*
X170492857Y-129785714D01*
X170397619Y-129738095D01*
X170350000Y-129690476D01*
X170302380Y-129595238D01*
X170302380Y-129404761D01*
X170350000Y-129309523D01*
X170397619Y-129261904D01*
X170492857Y-129214285D01*
X170540476Y-129214285D01*
X170635714Y-129261904D01*
X170683333Y-129309523D01*
X170730952Y-129404761D01*
X170730952Y-129595238D01*
X170778571Y-129690476D01*
X170826190Y-129738095D01*
X170921428Y-129785714D01*
X171111904Y-129785714D01*
X171207142Y-129738095D01*
X171254761Y-129690476D01*
X171302380Y-129595238D01*
X171302380Y-129404761D01*
X171254761Y-129309523D01*
X171207142Y-129261904D01*
X171111904Y-129214285D01*
X170921428Y-129214285D01*
X170826190Y-129261904D01*
X170778571Y-129309523D01*
X170730952Y-129404761D01*
X171452380Y-121166666D02*
X170976190Y-121500000D01*
X171452380Y-121738095D02*
X170452380Y-121738095D01*
X170452380Y-121357142D01*
X170500000Y-121261904D01*
X170547619Y-121214285D01*
X170642857Y-121166666D01*
X170785714Y-121166666D01*
X170880952Y-121214285D01*
X170928571Y-121261904D01*
X170976190Y-121357142D01*
X170976190Y-121738095D01*
X171452380Y-120690476D02*
X171452380Y-120500000D01*
X171404761Y-120404761D01*
X171357142Y-120357142D01*
X171214285Y-120261904D01*
X171023809Y-120214285D01*
X170642857Y-120214285D01*
X170547619Y-120261904D01*
X170500000Y-120309523D01*
X170452380Y-120404761D01*
X170452380Y-120595238D01*
X170500000Y-120690476D01*
X170547619Y-120738095D01*
X170642857Y-120785714D01*
X170880952Y-120785714D01*
X170976190Y-120738095D01*
X171023809Y-120690476D01*
X171071428Y-120595238D01*
X171071428Y-120404761D01*
X171023809Y-120309523D01*
X170976190Y-120261904D01*
X170880952Y-120214285D01*
X169952380Y-127642857D02*
X169476190Y-127976190D01*
X169952380Y-128214285D02*
X168952380Y-128214285D01*
X168952380Y-127833333D01*
X169000000Y-127738095D01*
X169047619Y-127690476D01*
X169142857Y-127642857D01*
X169285714Y-127642857D01*
X169380952Y-127690476D01*
X169428571Y-127738095D01*
X169476190Y-127833333D01*
X169476190Y-128214285D01*
X169952380Y-126690476D02*
X169952380Y-127261904D01*
X169952380Y-126976190D02*
X168952380Y-126976190D01*
X169095238Y-127071428D01*
X169190476Y-127166666D01*
X169238095Y-127261904D01*
X168952380Y-126071428D02*
X168952380Y-125976190D01*
X169000000Y-125880952D01*
X169047619Y-125833333D01*
X169142857Y-125785714D01*
X169333333Y-125738095D01*
X169571428Y-125738095D01*
X169761904Y-125785714D01*
X169857142Y-125833333D01*
X169904761Y-125880952D01*
X169952380Y-125976190D01*
X169952380Y-126071428D01*
X169904761Y-126166666D01*
X169857142Y-126214285D01*
X169761904Y-126261904D01*
X169571428Y-126309523D01*
X169333333Y-126309523D01*
X169142857Y-126261904D01*
X169047619Y-126214285D01*
X169000000Y-126166666D01*
X168952380Y-126071428D01*
X169952380Y-124642857D02*
X169476190Y-124976190D01*
X169952380Y-125214285D02*
X168952380Y-125214285D01*
X168952380Y-124833333D01*
X169000000Y-124738095D01*
X169047619Y-124690476D01*
X169142857Y-124642857D01*
X169285714Y-124642857D01*
X169380952Y-124690476D01*
X169428571Y-124738095D01*
X169476190Y-124833333D01*
X169476190Y-125214285D01*
X169952380Y-123690476D02*
X169952380Y-124261904D01*
X169952380Y-123976190D02*
X168952380Y-123976190D01*
X169095238Y-124071428D01*
X169190476Y-124166666D01*
X169238095Y-124261904D01*
X169952380Y-122738095D02*
X169952380Y-123309523D01*
X169952380Y-123023809D02*
X168952380Y-123023809D01*
X169095238Y-123119047D01*
X169190476Y-123214285D01*
X169238095Y-123309523D01*
X148452380Y-132142857D02*
X147976190Y-132476190D01*
X148452380Y-132714285D02*
X147452380Y-132714285D01*
X147452380Y-132333333D01*
X147500000Y-132238095D01*
X147547619Y-132190476D01*
X147642857Y-132142857D01*
X147785714Y-132142857D01*
X147880952Y-132190476D01*
X147928571Y-132238095D01*
X147976190Y-132333333D01*
X147976190Y-132714285D01*
X148452380Y-131190476D02*
X148452380Y-131761904D01*
X148452380Y-131476190D02*
X147452380Y-131476190D01*
X147595238Y-131571428D01*
X147690476Y-131666666D01*
X147738095Y-131761904D01*
X147547619Y-130809523D02*
X147500000Y-130761904D01*
X147452380Y-130666666D01*
X147452380Y-130428571D01*
X147500000Y-130333333D01*
X147547619Y-130285714D01*
X147642857Y-130238095D01*
X147738095Y-130238095D01*
X147880952Y-130285714D01*
X148452380Y-130857142D01*
X148452380Y-130238095D01*
X148102380Y-129142857D02*
X147626190Y-129476190D01*
X148102380Y-129714285D02*
X147102380Y-129714285D01*
X147102380Y-129333333D01*
X147150000Y-129238095D01*
X147197619Y-129190476D01*
X147292857Y-129142857D01*
X147435714Y-129142857D01*
X147530952Y-129190476D01*
X147578571Y-129238095D01*
X147626190Y-129333333D01*
X147626190Y-129714285D01*
X148102380Y-128190476D02*
X148102380Y-128761904D01*
X148102380Y-128476190D02*
X147102380Y-128476190D01*
X147245238Y-128571428D01*
X147340476Y-128666666D01*
X147388095Y-128761904D01*
X147102380Y-127857142D02*
X147102380Y-127238095D01*
X147483333Y-127571428D01*
X147483333Y-127428571D01*
X147530952Y-127333333D01*
X147578571Y-127285714D01*
X147673809Y-127238095D01*
X147911904Y-127238095D01*
X148007142Y-127285714D01*
X148054761Y-127333333D01*
X148102380Y-127428571D01*
X148102380Y-127714285D01*
X148054761Y-127809523D01*
X148007142Y-127857142D01*
X165357142Y-127452380D02*
X165023809Y-126976190D01*
X164785714Y-127452380D02*
X164785714Y-126452380D01*
X165166666Y-126452380D01*
X165261904Y-126500000D01*
X165309523Y-126547619D01*
X165357142Y-126642857D01*
X165357142Y-126785714D01*
X165309523Y-126880952D01*
X165261904Y-126928571D01*
X165166666Y-126976190D01*
X164785714Y-126976190D01*
X166309523Y-127452380D02*
X165738095Y-127452380D01*
X166023809Y-127452380D02*
X166023809Y-126452380D01*
X165928571Y-126595238D01*
X165833333Y-126690476D01*
X165738095Y-126738095D01*
X167166666Y-126785714D02*
X167166666Y-127452380D01*
X166928571Y-126404761D02*
X166690476Y-127119047D01*
X167309523Y-127119047D01*
X163857142Y-117602380D02*
X163523809Y-117126190D01*
X163285714Y-117602380D02*
X163285714Y-116602380D01*
X163666666Y-116602380D01*
X163761904Y-116650000D01*
X163809523Y-116697619D01*
X163857142Y-116792857D01*
X163857142Y-116935714D01*
X163809523Y-117030952D01*
X163761904Y-117078571D01*
X163666666Y-117126190D01*
X163285714Y-117126190D01*
X164809523Y-117602380D02*
X164238095Y-117602380D01*
X164523809Y-117602380D02*
X164523809Y-116602380D01*
X164428571Y-116745238D01*
X164333333Y-116840476D01*
X164238095Y-116888095D01*
X165714285Y-116602380D02*
X165238095Y-116602380D01*
X165190476Y-117078571D01*
X165238095Y-117030952D01*
X165333333Y-116983333D01*
X165571428Y-116983333D01*
X165666666Y-117030952D01*
X165714285Y-117078571D01*
X165761904Y-117173809D01*
X165761904Y-117411904D01*
X165714285Y-117507142D01*
X165666666Y-117554761D01*
X165571428Y-117602380D01*
X165333333Y-117602380D01*
X165238095Y-117554761D01*
X165190476Y-117507142D01*
X156302380Y-106392857D02*
X155826190Y-106726190D01*
X156302380Y-106964285D02*
X155302380Y-106964285D01*
X155302380Y-106583333D01*
X155350000Y-106488095D01*
X155397619Y-106440476D01*
X155492857Y-106392857D01*
X155635714Y-106392857D01*
X155730952Y-106440476D01*
X155778571Y-106488095D01*
X155826190Y-106583333D01*
X155826190Y-106964285D01*
X156302380Y-105440476D02*
X156302380Y-106011904D01*
X156302380Y-105726190D02*
X155302380Y-105726190D01*
X155445238Y-105821428D01*
X155540476Y-105916666D01*
X155588095Y-106011904D01*
X155302380Y-104583333D02*
X155302380Y-104773809D01*
X155350000Y-104869047D01*
X155397619Y-104916666D01*
X155540476Y-105011904D01*
X155730952Y-105059523D01*
X156111904Y-105059523D01*
X156207142Y-105011904D01*
X156254761Y-104964285D01*
X156302380Y-104869047D01*
X156302380Y-104678571D01*
X156254761Y-104583333D01*
X156207142Y-104535714D01*
X156111904Y-104488095D01*
X155873809Y-104488095D01*
X155778571Y-104535714D01*
X155730952Y-104583333D01*
X155683333Y-104678571D01*
X155683333Y-104869047D01*
X155730952Y-104964285D01*
X155778571Y-105011904D01*
X155873809Y-105059523D01*
X145166666Y-103654761D02*
X145309523Y-103702380D01*
X145547619Y-103702380D01*
X145642857Y-103654761D01*
X145690476Y-103607142D01*
X145738095Y-103511904D01*
X145738095Y-103416666D01*
X145690476Y-103321428D01*
X145642857Y-103273809D01*
X145547619Y-103226190D01*
X145357142Y-103178571D01*
X145261904Y-103130952D01*
X145214285Y-103083333D01*
X145166666Y-102988095D01*
X145166666Y-102892857D01*
X145214285Y-102797619D01*
X145261904Y-102750000D01*
X145357142Y-102702380D01*
X145595238Y-102702380D01*
X145738095Y-102750000D01*
X146071428Y-102702380D02*
X146309523Y-103702380D01*
X146500000Y-102988095D01*
X146690476Y-103702380D01*
X146928571Y-102702380D01*
X147833333Y-103702380D02*
X147261904Y-103702380D01*
X147547619Y-103702380D02*
X147547619Y-102702380D01*
X147452380Y-102845238D01*
X147357142Y-102940476D01*
X147261904Y-102988095D01*
X158940476Y-137202380D02*
X159607142Y-138202380D01*
X159607142Y-137202380D02*
X158940476Y-138202380D01*
X159988095Y-138202380D02*
X159988095Y-137202380D01*
X160369047Y-137202380D01*
X160464285Y-137250000D01*
X160511904Y-137297619D01*
X160559523Y-137392857D01*
X160559523Y-137535714D01*
X160511904Y-137630952D01*
X160464285Y-137678571D01*
X160369047Y-137726190D01*
X159988095Y-137726190D01*
X160940476Y-137297619D02*
X160988095Y-137250000D01*
X161083333Y-137202380D01*
X161321428Y-137202380D01*
X161416666Y-137250000D01*
X161464285Y-137297619D01*
X161511904Y-137392857D01*
X161511904Y-137488095D01*
X161464285Y-137630952D01*
X160892857Y-138202380D01*
X161511904Y-138202380D01*
X139452380Y-110809523D02*
X140452380Y-110142857D01*
X139452380Y-110142857D02*
X140452380Y-110809523D01*
X140452380Y-109761904D02*
X139452380Y-109761904D01*
X139452380Y-109380952D01*
X139500000Y-109285714D01*
X139547619Y-109238095D01*
X139642857Y-109190476D01*
X139785714Y-109190476D01*
X139880952Y-109238095D01*
X139928571Y-109285714D01*
X139976190Y-109380952D01*
X139976190Y-109761904D01*
X139452380Y-108857142D02*
X139452380Y-108238095D01*
X139833333Y-108571428D01*
X139833333Y-108428571D01*
X139880952Y-108333333D01*
X139928571Y-108285714D01*
X140023809Y-108238095D01*
X140261904Y-108238095D01*
X140357142Y-108285714D01*
X140404761Y-108333333D01*
X140452380Y-108428571D01*
X140452380Y-108714285D01*
X140404761Y-108809523D01*
X140357142Y-108857142D01*
X132940476Y-127202380D02*
X133607142Y-128202380D01*
X133607142Y-127202380D02*
X132940476Y-128202380D01*
X133988095Y-128202380D02*
X133988095Y-127202380D01*
X134369047Y-127202380D01*
X134464285Y-127250000D01*
X134511904Y-127297619D01*
X134559523Y-127392857D01*
X134559523Y-127535714D01*
X134511904Y-127630952D01*
X134464285Y-127678571D01*
X134369047Y-127726190D01*
X133988095Y-127726190D01*
X135416666Y-127535714D02*
X135416666Y-128202380D01*
X135178571Y-127154761D02*
X134940476Y-127869047D01*
X135559523Y-127869047D01*
X168440476Y-133552380D02*
X169107142Y-134552380D01*
X169107142Y-133552380D02*
X168440476Y-134552380D01*
X169488095Y-134552380D02*
X169488095Y-133552380D01*
X169869047Y-133552380D01*
X169964285Y-133600000D01*
X170011904Y-133647619D01*
X170059523Y-133742857D01*
X170059523Y-133885714D01*
X170011904Y-133980952D01*
X169964285Y-134028571D01*
X169869047Y-134076190D01*
X169488095Y-134076190D01*
X170964285Y-133552380D02*
X170488095Y-133552380D01*
X170440476Y-134028571D01*
X170488095Y-133980952D01*
X170583333Y-133933333D01*
X170821428Y-133933333D01*
X170916666Y-133980952D01*
X170964285Y-134028571D01*
X171011904Y-134123809D01*
X171011904Y-134361904D01*
X170964285Y-134457142D01*
X170916666Y-134504761D01*
X170821428Y-134552380D01*
X170583333Y-134552380D01*
X170488095Y-134504761D01*
X170440476Y-134457142D01*
X162352380Y-98409523D02*
X163352380Y-97742857D01*
X162352380Y-97742857D02*
X163352380Y-98409523D01*
X163352380Y-97361904D02*
X162352380Y-97361904D01*
X162352380Y-96980952D01*
X162400000Y-96885714D01*
X162447619Y-96838095D01*
X162542857Y-96790476D01*
X162685714Y-96790476D01*
X162780952Y-96838095D01*
X162828571Y-96885714D01*
X162876190Y-96980952D01*
X162876190Y-97361904D01*
X162780952Y-96219047D02*
X162733333Y-96314285D01*
X162685714Y-96361904D01*
X162590476Y-96409523D01*
X162542857Y-96409523D01*
X162447619Y-96361904D01*
X162400000Y-96314285D01*
X162352380Y-96219047D01*
X162352380Y-96028571D01*
X162400000Y-95933333D01*
X162447619Y-95885714D01*
X162542857Y-95838095D01*
X162590476Y-95838095D01*
X162685714Y-95885714D01*
X162733333Y-95933333D01*
X162780952Y-96028571D01*
X162780952Y-96219047D01*
X162828571Y-96314285D01*
X162876190Y-96361904D01*
X162971428Y-96409523D01*
X163161904Y-96409523D01*
X163257142Y-96361904D01*
X163304761Y-96314285D01*
X163352380Y-96219047D01*
X163352380Y-96028571D01*
X163304761Y-95933333D01*
X163257142Y-95885714D01*
X163161904Y-95838095D01*
X162971428Y-95838095D01*
X162876190Y-95885714D01*
X162828571Y-95933333D01*
X162780952Y-96028571D01*
X139452380Y-98809523D02*
X140452380Y-98142857D01*
X139452380Y-98142857D02*
X140452380Y-98809523D01*
X140452380Y-97761904D02*
X139452380Y-97761904D01*
X139452380Y-97380952D01*
X139500000Y-97285714D01*
X139547619Y-97238095D01*
X139642857Y-97190476D01*
X139785714Y-97190476D01*
X139880952Y-97238095D01*
X139928571Y-97285714D01*
X139976190Y-97380952D01*
X139976190Y-97761904D01*
X140452380Y-96714285D02*
X140452380Y-96523809D01*
X140404761Y-96428571D01*
X140357142Y-96380952D01*
X140214285Y-96285714D01*
X140023809Y-96238095D01*
X139642857Y-96238095D01*
X139547619Y-96285714D01*
X139500000Y-96333333D01*
X139452380Y-96428571D01*
X139452380Y-96619047D01*
X139500000Y-96714285D01*
X139547619Y-96761904D01*
X139642857Y-96809523D01*
X139880952Y-96809523D01*
X139976190Y-96761904D01*
X140023809Y-96714285D01*
X140071428Y-96619047D01*
X140071428Y-96428571D01*
X140023809Y-96333333D01*
X139976190Y-96285714D01*
X139880952Y-96238095D01*
X138964285Y-131952380D02*
X139630952Y-132952380D01*
X139630952Y-131952380D02*
X138964285Y-132952380D01*
X140011904Y-132952380D02*
X140011904Y-131952380D01*
X140392857Y-131952380D01*
X140488095Y-132000000D01*
X140535714Y-132047619D01*
X140583333Y-132142857D01*
X140583333Y-132285714D01*
X140535714Y-132380952D01*
X140488095Y-132428571D01*
X140392857Y-132476190D01*
X140011904Y-132476190D01*
X141535714Y-132952380D02*
X140964285Y-132952380D01*
X141250000Y-132952380D02*
X141250000Y-131952380D01*
X141154761Y-132095238D01*
X141059523Y-132190476D01*
X140964285Y-132238095D01*
X141916666Y-132047619D02*
X141964285Y-132000000D01*
X142059523Y-131952380D01*
X142297619Y-131952380D01*
X142392857Y-132000000D01*
X142440476Y-132047619D01*
X142488095Y-132142857D01*
X142488095Y-132238095D01*
X142440476Y-132380952D01*
X141869047Y-132952380D01*
X142488095Y-132952380D01*
X143214285Y-131952380D02*
X143880952Y-132952380D01*
X143880952Y-131952380D02*
X143214285Y-132952380D01*
X144261904Y-132952380D02*
X144261904Y-131952380D01*
X144642857Y-131952380D01*
X144738095Y-132000000D01*
X144785714Y-132047619D01*
X144833333Y-132142857D01*
X144833333Y-132285714D01*
X144785714Y-132380952D01*
X144738095Y-132428571D01*
X144642857Y-132476190D01*
X144261904Y-132476190D01*
X145785714Y-132952380D02*
X145214285Y-132952380D01*
X145500000Y-132952380D02*
X145500000Y-131952380D01*
X145404761Y-132095238D01*
X145309523Y-132190476D01*
X145214285Y-132238095D01*
X146119047Y-131952380D02*
X146738095Y-131952380D01*
X146404761Y-132333333D01*
X146547619Y-132333333D01*
X146642857Y-132380952D01*
X146690476Y-132428571D01*
X146738095Y-132523809D01*
X146738095Y-132761904D01*
X146690476Y-132857142D01*
X146642857Y-132904761D01*
X146547619Y-132952380D01*
X146261904Y-132952380D01*
X146166666Y-132904761D01*
X146119047Y-132857142D01*
X141309523Y-126452380D02*
X141642857Y-127452380D01*
X141976190Y-126452380D01*
X142166666Y-126452380D02*
X142738095Y-126452380D01*
X142452380Y-127452380D02*
X142452380Y-126452380D01*
X142976190Y-126452380D02*
X143595238Y-126452380D01*
X143261904Y-126833333D01*
X143404761Y-126833333D01*
X143500000Y-126880952D01*
X143547619Y-126928571D01*
X143595238Y-127023809D01*
X143595238Y-127261904D01*
X143547619Y-127357142D01*
X143500000Y-127404761D01*
X143404761Y-127452380D01*
X143119047Y-127452380D01*
X143023809Y-127404761D01*
X142976190Y-127357142D01*
X132952380Y-98809523D02*
X133952380Y-98142857D01*
X132952380Y-98142857D02*
X133952380Y-98809523D01*
X133952380Y-97761904D02*
X132952380Y-97761904D01*
X132952380Y-97380952D01*
X133000000Y-97285714D01*
X133047619Y-97238095D01*
X133142857Y-97190476D01*
X133285714Y-97190476D01*
X133380952Y-97238095D01*
X133428571Y-97285714D01*
X133476190Y-97380952D01*
X133476190Y-97761904D01*
X132952380Y-96333333D02*
X132952380Y-96523809D01*
X133000000Y-96619047D01*
X133047619Y-96666666D01*
X133190476Y-96761904D01*
X133380952Y-96809523D01*
X133761904Y-96809523D01*
X133857142Y-96761904D01*
X133904761Y-96714285D01*
X133952380Y-96619047D01*
X133952380Y-96428571D01*
X133904761Y-96333333D01*
X133857142Y-96285714D01*
X133761904Y-96238095D01*
X133523809Y-96238095D01*
X133428571Y-96285714D01*
X133380952Y-96333333D01*
X133333333Y-96428571D01*
X133333333Y-96619047D01*
X133380952Y-96714285D01*
X133428571Y-96761904D01*
X133523809Y-96809523D01*
X132952380Y-110809523D02*
X133952380Y-110142857D01*
X132952380Y-110142857D02*
X133952380Y-110809523D01*
X133952380Y-109761904D02*
X132952380Y-109761904D01*
X132952380Y-109380952D01*
X133000000Y-109285714D01*
X133047619Y-109238095D01*
X133142857Y-109190476D01*
X133285714Y-109190476D01*
X133380952Y-109238095D01*
X133428571Y-109285714D01*
X133476190Y-109380952D01*
X133476190Y-109761904D01*
X132952380Y-108857142D02*
X132952380Y-108190476D01*
X133952380Y-108619047D01*
X149261904Y-112202380D02*
X149261904Y-111202380D01*
X149500000Y-111202380D01*
X149642857Y-111250000D01*
X149738095Y-111345238D01*
X149785714Y-111440476D01*
X149833333Y-111630952D01*
X149833333Y-111773809D01*
X149785714Y-111964285D01*
X149738095Y-112059523D01*
X149642857Y-112154761D01*
X149500000Y-112202380D01*
X149261904Y-112202380D01*
X150261904Y-112202380D02*
X150261904Y-111202380D01*
X150500000Y-111202380D01*
X150642857Y-111250000D01*
X150738095Y-111345238D01*
X150785714Y-111440476D01*
X150833333Y-111630952D01*
X150833333Y-111773809D01*
X150785714Y-111964285D01*
X150738095Y-112059523D01*
X150642857Y-112154761D01*
X150500000Y-112202380D01*
X150261904Y-112202380D01*
X151690476Y-111535714D02*
X151690476Y-112202380D01*
X151452380Y-111154761D02*
X151214285Y-111869047D01*
X151833333Y-111869047D01*
X160202380Y-110238095D02*
X159202380Y-110238095D01*
X159202380Y-110000000D01*
X159250000Y-109857142D01*
X159345238Y-109761904D01*
X159440476Y-109714285D01*
X159630952Y-109666666D01*
X159773809Y-109666666D01*
X159964285Y-109714285D01*
X160059523Y-109761904D01*
X160154761Y-109857142D01*
X160202380Y-110000000D01*
X160202380Y-110238095D01*
X160202380Y-109238095D02*
X159202380Y-109238095D01*
X159202380Y-109000000D01*
X159250000Y-108857142D01*
X159345238Y-108761904D01*
X159440476Y-108714285D01*
X159630952Y-108666666D01*
X159773809Y-108666666D01*
X159964285Y-108714285D01*
X160059523Y-108761904D01*
X160154761Y-108857142D01*
X160202380Y-109000000D01*
X160202380Y-109238095D01*
X159202380Y-107761904D02*
X159202380Y-108238095D01*
X159678571Y-108285714D01*
X159630952Y-108238095D01*
X159583333Y-108142857D01*
X159583333Y-107904761D01*
X159630952Y-107809523D01*
X159678571Y-107761904D01*
X159773809Y-107714285D01*
X160011904Y-107714285D01*
X160107142Y-107761904D01*
X160154761Y-107809523D01*
X160202380Y-107904761D01*
X160202380Y-108142857D01*
X160154761Y-108238095D01*
X160107142Y-108285714D01*
X174452380Y-109309523D02*
X175452380Y-108976190D01*
X174452380Y-108642857D01*
X175452380Y-108309523D02*
X174452380Y-108309523D01*
X174452380Y-108071428D01*
X174500000Y-107928571D01*
X174595238Y-107833333D01*
X174690476Y-107785714D01*
X174880952Y-107738095D01*
X175023809Y-107738095D01*
X175214285Y-107785714D01*
X175309523Y-107833333D01*
X175404761Y-107928571D01*
X175452380Y-108071428D01*
X175452380Y-108309523D01*
X175452380Y-106785714D02*
X175452380Y-107357142D01*
X175452380Y-107071428D02*
X174452380Y-107071428D01*
X174595238Y-107166666D01*
X174690476Y-107261904D01*
X174738095Y-107357142D01*
X132190476Y-79452380D02*
X132190476Y-78452380D01*
X132523809Y-79166666D01*
X132857142Y-78452380D01*
X132857142Y-79452380D01*
X133333333Y-79452380D02*
X133333333Y-78452380D01*
X133904761Y-79452380D02*
X133476190Y-78880952D01*
X133904761Y-78452380D02*
X133333333Y-79023809D01*
X134857142Y-79452380D02*
X134285714Y-79452380D01*
X134571428Y-79452380D02*
X134571428Y-78452380D01*
X134476190Y-78595238D01*
X134380952Y-78690476D01*
X134285714Y-78738095D01*
X190190476Y-79452380D02*
X190190476Y-78452380D01*
X190523809Y-79166666D01*
X190857142Y-78452380D01*
X190857142Y-79452380D01*
X191333333Y-79452380D02*
X191333333Y-78452380D01*
X191904761Y-79452380D02*
X191476190Y-78880952D01*
X191904761Y-78452380D02*
X191333333Y-79023809D01*
X192285714Y-78547619D02*
X192333333Y-78500000D01*
X192428571Y-78452380D01*
X192666666Y-78452380D01*
X192761904Y-78500000D01*
X192809523Y-78547619D01*
X192857142Y-78642857D01*
X192857142Y-78738095D01*
X192809523Y-78880952D01*
X192238095Y-79452380D01*
X192857142Y-79452380D01*
X138690476Y-141952380D02*
X138690476Y-140952380D01*
X139023809Y-141666666D01*
X139357142Y-140952380D01*
X139357142Y-141952380D01*
X139833333Y-141952380D02*
X139833333Y-140952380D01*
X140404761Y-141952380D02*
X139976190Y-141380952D01*
X140404761Y-140952380D02*
X139833333Y-141523809D01*
X140738095Y-140952380D02*
X141357142Y-140952380D01*
X141023809Y-141333333D01*
X141166666Y-141333333D01*
X141261904Y-141380952D01*
X141309523Y-141428571D01*
X141357142Y-141523809D01*
X141357142Y-141761904D01*
X141309523Y-141857142D01*
X141261904Y-141904761D01*
X141166666Y-141952380D01*
X140880952Y-141952380D01*
X140785714Y-141904761D01*
X140738095Y-141857142D01*
X200190476Y-136952380D02*
X200190476Y-135952380D01*
X200523809Y-136666666D01*
X200857142Y-135952380D01*
X200857142Y-136952380D01*
X201333333Y-136952380D02*
X201333333Y-135952380D01*
X201904761Y-136952380D02*
X201476190Y-136380952D01*
X201904761Y-135952380D02*
X201333333Y-136523809D01*
X202761904Y-136285714D02*
X202761904Y-136952380D01*
X202523809Y-135904761D02*
X202285714Y-136619047D01*
X202904761Y-136619047D01*
X140952380Y-122785714D02*
X141952380Y-122119047D01*
X140952380Y-122119047D02*
X141952380Y-122785714D01*
X141952380Y-121738095D02*
X140952380Y-121738095D01*
X140952380Y-121357142D01*
X141000000Y-121261904D01*
X141047619Y-121214285D01*
X141142857Y-121166666D01*
X141285714Y-121166666D01*
X141380952Y-121214285D01*
X141428571Y-121261904D01*
X141476190Y-121357142D01*
X141476190Y-121738095D01*
X141952380Y-120214285D02*
X141952380Y-120785714D01*
X141952380Y-120500000D02*
X140952380Y-120500000D01*
X141095238Y-120595238D01*
X141190476Y-120690476D01*
X141238095Y-120785714D01*
X140952380Y-119595238D02*
X140952380Y-119500000D01*
X141000000Y-119404761D01*
X141047619Y-119357142D01*
X141142857Y-119309523D01*
X141333333Y-119261904D01*
X141571428Y-119261904D01*
X141761904Y-119309523D01*
X141857142Y-119357142D01*
X141904761Y-119404761D01*
X141952380Y-119500000D01*
X141952380Y-119595238D01*
X141904761Y-119690476D01*
X141857142Y-119738095D01*
X141761904Y-119785714D01*
X141571428Y-119833333D01*
X141333333Y-119833333D01*
X141142857Y-119785714D01*
X141047619Y-119738095D01*
X141000000Y-119690476D01*
X140952380Y-119595238D01*
X163690476Y-91702380D02*
X164357142Y-92702380D01*
X164357142Y-91702380D02*
X163690476Y-92702380D01*
X164738095Y-92702380D02*
X164738095Y-91702380D01*
X165119047Y-91702380D01*
X165214285Y-91750000D01*
X165261904Y-91797619D01*
X165309523Y-91892857D01*
X165309523Y-92035714D01*
X165261904Y-92130952D01*
X165214285Y-92178571D01*
X165119047Y-92226190D01*
X164738095Y-92226190D01*
X166261904Y-92702380D02*
X165690476Y-92702380D01*
X165976190Y-92702380D02*
X165976190Y-91702380D01*
X165880952Y-91845238D01*
X165785714Y-91940476D01*
X165690476Y-91988095D01*
X180214285Y-139952380D02*
X180880952Y-140952380D01*
X180880952Y-139952380D02*
X180214285Y-140952380D01*
X181261904Y-140952380D02*
X181261904Y-139952380D01*
X181642857Y-139952380D01*
X181738095Y-140000000D01*
X181785714Y-140047619D01*
X181833333Y-140142857D01*
X181833333Y-140285714D01*
X181785714Y-140380952D01*
X181738095Y-140428571D01*
X181642857Y-140476190D01*
X181261904Y-140476190D01*
X182785714Y-140952380D02*
X182214285Y-140952380D01*
X182500000Y-140952380D02*
X182500000Y-139952380D01*
X182404761Y-140095238D01*
X182309523Y-140190476D01*
X182214285Y-140238095D01*
X183642857Y-140285714D02*
X183642857Y-140952380D01*
X183404761Y-139904761D02*
X183166666Y-140619047D01*
X183785714Y-140619047D01*
M02*
